HIERARCHY
ROOT Hips
{
	OFFSET 0.000000 0.000000 0.000000
	CHANNELS 6 Xposition Yposition Zposition Xrotation Yrotation Zrotation
	JOINT LeftUpLeg_virtual
	{
		OFFSET 0.000000 0.000000 0.000000
		CHANNELS 3 Xrotation Yrotation Zrotation
		JOINT LeftUpLeg
		{
			OFFSET 13.026900 -6.336304 -1.092800
			CHANNELS 3 Xrotation Yrotation Zrotation
			JOINT LeftLeg
			{
				OFFSET 0.524474 -46.096886 9.782700
				CHANNELS 3 Xrotation Yrotation Zrotation
				JOINT LeftFoot
				{
					OFFSET -0.524474 -53.427422 -12.948200
					CHANNELS 3 Xrotation Yrotation Zrotation
					JOINT LeftToeBase
					{
						OFFSET 0.192200 -14.009700 16.364100
						CHANNELS 3 Xrotation Yrotation Zrotation
						JOINT LeftToe_End
						{
							OFFSET -1.784700 -0.561700 9.474800
							CHANNELS 3 Xrotation Yrotation Zrotation
							End Site
							{
								OFFSET 0 0 0
							}
						}
					}
				}
			}
		}
	}
	JOINT RightUpLeg_virtual
	{
		OFFSET 0.000000 0.000000 0.000000
		CHANNELS 3 Xrotation Yrotation Zrotation
		JOINT RightUpLeg
		{
			OFFSET -12.883000 -6.336304 -1.092800
			CHANNELS 3 Xrotation Yrotation Zrotation
			JOINT RightLeg
			{
				OFFSET -0.524587 -46.096825 9.782800
				CHANNELS 3 Xrotation Yrotation Zrotation
				JOINT RightFoot
				{
					OFFSET 0.524587 -53.427383 -12.948300
					CHANNELS 3 Xrotation Yrotation Zrotation
					JOINT RightToeBase
					{
						OFFSET -0.192200 -14.009700 16.364100
						CHANNELS 3 Xrotation Yrotation Zrotation
						JOINT RightToe_End
						{
							OFFSET 1.784700 -0.561700 9.474800
							CHANNELS 3 Xrotation Yrotation Zrotation
							End Site
							{
								OFFSET 0 0 0
							}
						}
					}
				}
			}
		}
	}
	JOINT Spine_virtual
	{
		OFFSET 0.000000 0.000000 0.000000
		CHANNELS 3 Xrotation Yrotation Zrotation
		JOINT Spine
		{
			OFFSET 0.072000 7.257294 -0.789700
			CHANNELS 3 Xrotation Yrotation Zrotation
			JOINT Spine1
			{
				OFFSET 0.000000 12.508769 -0.658067
				CHANNELS 3 Xrotation Yrotation Zrotation
				JOINT Spine1_split
				{
					OFFSET 0.000000 12.508769 -0.658067
					CHANNELS 3 Xrotation Yrotation Zrotation
					JOINT Spine2
					{
						OFFSET 0.000000 12.508769 -0.658067
						CHANNELS 3 Xrotation Yrotation Zrotation
						JOINT Neck_virtual
						{
							OFFSET 0.000000 0.000000 0.000000
							CHANNELS 3 Xrotation Yrotation Zrotation
							JOINT Neck
							{
								OFFSET 0.000000 14.033295 7.520400
								CHANNELS 3 Xrotation Yrotation Zrotation
								JOINT Head
								{
									OFFSET 0.000000 8.198502 5.703100
									CHANNELS 3 Xrotation Yrotation Zrotation
									JOINT HeadTop_End
									{
										OFFSET 0.000000 17.760803 13.332701
										CHANNELS 3 Xrotation Yrotation Zrotation
										End Site
										{
											OFFSET 0 0 0
										}
									}
								}
							}
						}
						JOINT LeftShoulder_virtual
						{
							OFFSET 0.000000 0.000000 0.000000
							CHANNELS 3 Xrotation Yrotation Zrotation
							JOINT LeftShoulder
							{
								OFFSET 6.292450 5.785301 -0.669000
								CHANNELS 3 Xrotation Yrotation Zrotation
								JOINT LeftShoulder_split
								{
									OFFSET 6.292450 5.785301 -0.669000
									CHANNELS 3 Xrotation Yrotation Zrotation
									JOINT LeftArm
									{
										OFFSET 13.907140 -6.093903 1.965100
										CHANNELS 3 Xrotation Yrotation Zrotation
										JOINT LeftForeArm
										{
											OFFSET 34.140198 0.000000 0.000000
											CHANNELS 3 Xrotation Yrotation Zrotation
											JOINT LeftHand
											{
												OFFSET 40.960209 0.000000 0.000000
												CHANNELS 3 Xrotation Yrotation Zrotation
												End Site
												{
													OFFSET 0 0 0
												}
											}
										}
									}
								}
							}
						}
						JOINT RightShoulder_virtual
						{
							OFFSET 0.000000 0.000000 0.000000
							CHANNELS 3 Xrotation Yrotation Zrotation
							JOINT RightShoulder
							{
								OFFSET -6.292450 5.785301 -0.669000
								CHANNELS 3 Xrotation Yrotation Zrotation
								JOINT RightShoulder_split
								{
									OFFSET -6.292450 5.785301 -0.669000
									CHANNELS 3 Xrotation Yrotation Zrotation
									JOINT RightArm
									{
										OFFSET -13.907140 -6.093903 1.965100
										CHANNELS 3 Xrotation Yrotation Zrotation
										JOINT RightForeArm
										{
											OFFSET -34.140198 0.000000 0.000000
											CHANNELS 3 Xrotation Yrotation Zrotation
											JOINT RightHand
											{
												OFFSET -40.960209 0.000000 0.000000
												CHANNELS 3 Xrotation Yrotation Zrotation
												End Site
												{
													OFFSET 0 0 0
												}
											}
										}
									}
								}
							}
						}
					}
				}
			}
		}
	}
}
MOTION
Frames: 11
Frame Time: 0.03333333
0.086900 119.491959 1.089378 0.000000 0.000000 0.000000 -4.056043 6.167775 -1.799131 -1.997934 11.137247 9.919246 8.920757 -6.497561 0.247554 -4.065726 0.511350 -6.342404 0.003801 0.013848 0.000116 0.000000 0.000000 0.000000 -4.056043 6.167775 -1.799131 -0.466716 -5.957158 1.992146 8.186488 3.323939 -0.639025 -3.459689 0.134990 0.180437 0.000046 0.000001 0.000003 0.000000 0.000000 0.000000 -4.056043 6.167775 -1.799131 4.903636 -0.351415 1.256147 5.814412 -0.121263 1.891506 0.000000 0.000000 0.000000 0.000000 0.000000 0.000000 -4.300226 -0.608025 -1.115061 1.349176 -1.122403 0.966674 4.180454 -0.441328 -1.260371 0.000000 0.000000 0.000000 -4.300226 -0.608025 -1.115061 1.687483 -7.781255 -3.494999 0.000000 0.000000 0.000000 -0.672287 -2.004149 -76.954143 6.346023 -10.905153 1.751679 0.000000 0.000000 0.000000 -4.300226 -0.608025 -1.115061 2.069733 10.207992 4.096301 0.000000 0.000000 0.000000 1.439768 3.704607 75.273903 15.720234 15.338356 -4.555480 0.000000 0.000000 0.000000 
0.456238 119.467361 1.262669 0.000000 0.000000 0.000000 -3.997980 5.945705 -1.816706 -1.938875 11.117051 9.727705 9.125133 -6.309627 0.267842 -4.335481 0.596685 -6.181206 0.000045 0.013849 -0.000002 0.000000 0.000000 0.000000 -3.997980 5.945705 -1.816706 -0.481608 -6.019917 1.810369 8.249031 3.481720 -0.657278 -3.598436 0.186498 0.402662 0.081687 0.176731 -0.060004 0.000000 0.000000 0.000000 -3.997980 5.945705 -1.816706 4.953504 -0.317625 1.166984 5.780767 -0.096299 1.938783 0.000000 0.000000 0.000000 0.000000 0.000000 0.000000 -4.313797 -0.587796 -1.059323 1.415384 -1.142937 0.891898 4.072205 -0.494248 -1.181360 0.000000 0.000000 0.000000 -4.313797 -0.587796 -1.059323 1.725176 -7.668272 -3.419643 0.000000 0.000000 0.000000 -0.663470 -1.883001 -77.088971 6.401418 -10.863920 1.697798 0.000000 0.000000 0.000000 -4.313797 -0.587796 -1.059323 2.143769 10.163304 3.767667 0.000000 0.000000 0.000000 1.868288 4.550494 75.382059 15.821532 16.571741 -5.763678 0.000000 0.000000 0.000000 
0.902811 119.424622 1.456997 0.000000 0.000000 0.000000 -3.829848 5.762608 -1.888266 -2.042272 10.990329 9.535016 9.455881 -6.048175 0.319353 -4.674018 0.669150 -6.003560 -0.000106 0.013846 0.000001 0.000000 0.000000 0.000000 -3.829848 5.762608 -1.888266 -0.602770 -6.110061 1.627477 8.336165 3.628410 -0.659003 -3.773687 0.196637 0.586891 0.128562 0.368012 -0.107553 0.000000 0.000000 0.000000 -3.829848 5.762608 -1.888266 4.884608 -0.296109 1.189895 5.773496 -0.086207 1.957464 0.000000 0.000000 0.000000 0.000000 0.000000 0.000000 -4.264755 -0.578404 -1.023406 1.240539 -1.139638 0.779122 4.059605 -0.539380 -1.054021 0.000000 0.000000 0.000000 -4.264755 -0.578404 -1.023406 1.728873 -7.543038 -3.464690 0.000000 0.000000 0.000000 -0.761511 -1.733395 -77.093144 6.407569 -10.788650 1.590132 0.000000 0.000000 0.000000 -4.264755 -0.578404 -1.023406 2.218203 10.107015 3.436440 0.000000 0.000000 0.000000 1.946282 5.291988 75.488869 15.732359 17.509204 -6.845783 0.000000 0.000000 0.000000 
1.426730 119.382507 1.738022 0.000000 0.000000 0.000000 -3.782557 5.528015 -1.926350 -1.940550 10.971528 9.287806 9.758733 -5.840278 0.346596 -5.073715 0.756867 -5.771115 -0.000091 0.013850 0.000006 0.000000 0.000000 0.000000 -3.782557 5.528015 -1.926350 -0.564212 -6.298108 1.377977 8.433610 3.948570 -0.653403 -3.987890 0.195043 0.808413 0.156702 0.556444 -0.170066 0.000000 0.000000 0.000000 -3.782557 5.528015 -1.926350 4.986922 -0.242375 1.192906 5.711836 -0.047053 1.952791 0.000000 0.000000 0.000000 0.000000 0.000000 0.000000 -4.235807 -0.535215 -0.996138 1.021570 -1.171057 0.727611 3.986930 -0.602143 -0.930918 0.000000 0.000000 0.000000 -4.235807 -0.535215 -0.996138 1.742162 -7.460042 -3.430645 0.000000 0.000000 0.000000 -0.839381 -1.700788 -77.165988 6.401229 -10.777360 1.487745 0.000000 0.000000 0.000000 -4.235807 -0.535215 -0.996138 2.290862 10.072032 3.144958 0.000000 0.000000 0.000000 1.878463 5.832929 75.612298 15.375212 18.311836 -7.894915 0.000000 0.000000 0.000000 
2.030456 119.321922 2.038933 0.000000 0.000000 0.000000 -3.651475 5.273410 -1.994015 -1.943938 10.897527 9.014464 10.151671 -5.553857 0.394617 -5.534971 0.839784 -5.516830 -0.000122 0.013848 0.000003 0.000000 0.000000 0.000000 -3.651475 5.273410 -1.994015 -0.623130 -6.443627 1.120152 8.558604 4.240727 -0.686957 -4.216765 0.211404 1.099469 0.150186 0.719785 -0.218002 0.000000 0.000000 0.000000 -3.651475 5.273410 -1.994015 5.052836 -0.167727 1.240537 5.633236 0.009386 1.926302 0.000000 0.000000 0.000000 0.000000 0.000000 0.000000 -4.191522 -0.472120 -0.979343 0.771106 -1.238011 0.763491 3.673447 -0.671725 -0.844459 0.000000 0.000000 0.000000 -4.191522 -0.472120 -0.979343 1.752072 -7.376013 -3.322552 0.000000 0.000000 0.000000 -0.864217 -1.910945 -77.278871 6.562481 -10.838902 1.399535 0.000000 0.000000 0.000000 -4.191522 -0.472120 -0.979343 2.305062 10.038484 2.891108 0.000000 0.000000 0.000000 1.582878 6.226906 75.707593 15.268306 18.776127 -8.923778 0.000000 0.000000 0.000000 
2.711763 119.241974 2.380878 0.000000 0.000000 0.000000 -3.557476 5.054711 -2.056425 -1.908769 10.766796 8.692636 10.610156 -5.230535 0.456987 -6.058620 0.912853 -5.234852 -0.000187 0.013847 -0.000004 0.000000 0.000000 0.000000 -3.557476 5.054711 -2.056425 -0.639269 -6.560494 0.845701 8.720190 4.558910 -0.783439 -4.478631 0.207912 1.466700 0.137389 0.792313 -0.134474 0.000000 0.000000 0.000000 -3.557476 5.054711 -2.056425 5.206596 -0.098072 1.210453 5.535951 0.046860 1.999415 0.000000 0.000000 0.000000 0.000000 0.000000 0.000000 -4.132951 -0.436019 -0.855768 0.482394 -1.233084 0.653704 3.304101 -0.729669 -0.651138 0.000000 0.000000 0.000000 -4.132951 -0.436019 -0.855768 1.738645 -7.243279 -3.378913 0.000000 0.000000 0.000000 -0.855127 -2.297728 -77.312605 6.397107 -10.898886 1.211018 0.000000 0.000000 0.000000 -4.132951 -0.436019 -0.855768 2.383214 10.062536 2.494449 0.000000 0.000000 0.000000 1.414113 6.378811 75.858499 15.152997 19.575394 -9.979633 0.000000 0.000000 0.000000 
3.490446 119.135384 2.753368 0.000000 0.000000 0.000000 -3.367974 4.908334 -2.158778 -2.025551 10.574985 8.360696 11.186772 -4.928369 0.513886 -6.650871 0.987262 -4.892417 -0.000174 0.013834 0.000002 0.000000 0.000000 0.000000 -3.367974 4.908334 -2.158778 -0.741373 -6.632233 0.537043 8.910073 4.667242 -0.877247 -4.798044 0.250809 1.918034 0.141626 0.883831 -0.094016 0.000000 0.000000 0.000000 -3.367974 4.908334 -2.158778 5.297726 -0.067398 1.218718 5.427744 0.057519 2.063191 0.000000 0.000000 0.000000 0.000000 0.000000 0.000000 -4.056098 -0.424844 -0.735532 0.226475 -1.228534 0.668340 2.709275 -0.756514 -0.468888 0.000000 0.000000 0.000000 -4.056098 -0.424844 -0.735532 1.727074 -6.921210 -3.586655 0.000000 0.000000 0.000000 -1.064903 -2.834422 -77.223362 6.450596 -10.874522 0.977353 0.000000 0.000000 0.000000 -4.056098 -0.424844 -0.735532 2.412060 10.059714 2.221547 0.000000 0.000000 0.000000 1.108801 6.494094 76.018216 14.883718 20.248610 -10.972452 0.000000 0.000000 0.000000 
4.347552 119.043205 3.200462 0.000000 0.000000 0.000000 -3.433559 4.830577 -2.165376 -1.748848 10.405717 7.901690 11.629710 -4.675049 0.548933 -7.242758 1.048804 -4.495298 -0.000053 0.013848 0.000005 0.000000 0.000000 0.000000 -3.433559 4.830577 -2.165376 -0.534578 -6.646040 0.171270 9.085039 4.814801 -1.135311 -5.068574 0.238040 2.676418 0.142899 0.827787 0.048388 0.000000 0.000000 0.000000 -3.433559 4.830577 -2.165376 5.813904 -0.070011 1.130535 5.177082 0.042143 2.140997 0.000000 0.000000 0.000000 0.000000 0.000000 0.000000 -4.093567 -0.436374 -0.593212 0.223478 -1.219035 0.714874 1.974686 -0.782665 -0.242247 0.000000 0.000000 0.000000 -4.093567 -0.436374 -0.593212 1.715671 -6.673939 -3.679052 0.000000 0.000000 0.000000 -1.301788 -3.207733 -77.253128 6.468753 -10.818623 0.708033 0.000000 0.000000 0.000000 -4.093567 -0.436374 -0.593212 2.438392 10.060426 1.935065 0.000000 0.000000 0.000000 0.854347 6.485974 76.165523 14.292015 20.732691 -11.504214 0.000000 0.000000 0.000000 
5.290883 118.961060 3.640678 0.000000 0.000000 0.000000 -3.438195 4.750507 -2.217683 -1.527745 10.253136 7.432380 12.048842 -4.429896 0.579616 -7.826880 1.104107 -4.046985 -0.000145 0.013852 -0.000004 0.000000 0.000000 0.000000 -3.438195 4.750507 -2.217683 -0.311095 -6.482025 -0.174337 9.117923 4.533663 -1.462649 -5.307780 0.394674 3.548666 0.050921 0.800213 -0.056387 0.000000 0.000000 0.000000 -3.438195 4.750507 -2.217683 6.360359 -0.081486 1.226477 4.870004 0.031192 2.101834 0.000000 0.000000 0.000000 0.000000 0.000000 0.000000 -4.164538 -0.432187 -0.559132 0.326502 -1.295480 0.973401 1.297067 -0.828736 -0.059597 0.000000 0.000000 0.000000 -4.164538 -0.432187 -0.559132 1.719823 -6.509165 -3.512831 0.000000 0.000000 0.000000 -1.824463 -3.324432 -77.496166 7.246902 -10.671272 0.485921 0.000000 0.000000 0.000000 -4.164538 -0.432187 -0.559132 2.436076 9.896436 1.877623 0.000000 0.000000 0.000000 0.660135 6.480352 76.116256 13.487534 21.169352 -11.652145 0.000000 0.000000 0.000000 
6.249839 118.831955 4.103901 0.000000 0.000000 0.000000 -3.461723 4.530327 -2.131025 -1.232848 10.257983 6.808701 12.459668 -4.218478 0.595069 -8.443621 1.180051 -3.567877 -0.000078 0.013830 -0.000003 0.000000 0.000000 0.000000 -3.461723 4.530327 -2.131025 -0.467010 -6.016612 -1.297216 9.688815 4.255976 -0.667228 -5.474533 0.535302 3.792463 -0.113423 0.743059 -0.250450 0.000000 0.000000 0.000000 -3.461723 4.530327 -2.131025 6.999187 -0.084301 0.928449 4.558581 0.031960 2.236083 0.000000 0.000000 0.000000 0.000000 0.000000 0.000000 -4.213221 -0.431091 -0.343677 0.216013 -1.259745 1.082885 0.702938 -0.817825 0.182952 0.000000 0.000000 0.000000 -4.213221 -0.431091 -0.343677 1.702608 -6.270190 -3.585781 0.000000 0.000000 0.000000 -2.493388 -3.497630 -77.654190 8.123796 -10.485697 0.259523 0.000000 0.000000 0.000000 -4.213221 -0.431091 -0.343677 2.444136 9.805072 1.710061 0.000000 0.000000 0.000000 0.544489 6.355684 76.042156 12.671828 21.561295 -11.703936 0.000000 0.000000 0.000000 
7.146169 118.623375 4.594307 0.000000 0.000000 0.000000 -3.689584 4.283925 -1.816114 -0.715935 10.468922 6.024528 12.908521 -4.186028 0.564879 -9.103502 1.246792 -3.057418 -0.000038 0.013858 0.000000 0.000000 0.000000 0.000000 -3.689584 4.283925 -1.816114 -1.061716 -5.143507 -3.171863 11.288645 3.449785 1.027655 -5.420875 0.807962 3.740832 -0.954958 0.892609 -0.358597 0.000000 0.000000 0.000000 -3.689584 4.283925 -1.816114 7.985341 -0.133789 0.292736 4.188923 0.005792 2.390395 0.000000 0.000000 0.000000 0.000000 0.000000 0.000000 -4.297097 -0.452976 -0.101838 0.113953 -1.198839 1.371299 -0.099246 -0.724672 0.352237 0.000000 0.000000 0.000000 -4.297097 -0.452976 -0.101838 1.696627 -6.093185 -3.450953 0.000000 0.000000 0.000000 -2.848741 -4.062597 -77.796866 8.302761 -10.407083 -0.102501 0.000000 0.000000 0.000000 -4.297097 -0.452976 -0.101838 2.451008 9.626295 1.643279 0.000000 0.000000 0.000000 0.462969 6.291464 75.939519 11.927903 21.851735 -11.662604 0.000000 0.000000 0.000000 
